<svg width="38" height="27" viewBox="0 0 38 27" fill="none" xmlns="http://www.w3.org/2000/svg">
                                  <g clip-path="url(#clip0)">
                                      <path d="M0 0H38V9H0V0Z" fill="#FF9933" />
                                      <path d="M0 9H38V18H0V9Z" fill="white" />
                                      <path d="M0 18H38V27H0V18Z" fill="#128807" />
                                      <path d="M19.0002 17.1004C21.0989 17.1004 22.8002 15.4886 22.8002 13.5004C22.8002 11.5122 21.0989 9.90039 19.0002 9.90039C16.9015 9.90039 15.2002 11.5122 15.2002 13.5004C15.2002 15.4886 16.9015 17.1004 19.0002 17.1004Z" fill="#000088" />
                                      <path d="M18.9998 16.6496C20.8362 16.6496 22.3248 15.2393 22.3248 13.4996C22.3248 11.7599 20.8362 10.3496 18.9998 10.3496C17.1635 10.3496 15.6748 11.7599 15.6748 13.4996C15.6748 15.2393 17.1635 16.6496 18.9998 16.6496Z" fill="white" />
                                      <path d="M19 14.1301C19.3672 14.1301 19.665 13.8481 19.665 13.5001C19.665 13.1522 19.3672 12.8701 19 12.8701C18.6327 12.8701 18.335 13.1522 18.335 13.5001C18.335 13.8481 18.6327 14.1301 19 14.1301Z" fill="#000088" />
                                      <path d="M22.2961 14.0689C22.388 14.0689 22.4624 13.9984 22.4624 13.9114C22.4624 13.8244 22.388 13.7539 22.2961 13.7539C22.2043 13.7539 22.1299 13.8244 22.1299 13.9114C22.1299 13.9984 22.2043 14.0689 22.2961 14.0689Z" fill="#000088" />
                                      <path d="M18.9997 16.6503L19.1137 14.7604L18.9997 13.8604L18.8857 14.7604L18.9997 16.6503Z" fill="#000088" />
                                      <path d="M22.0715 14.8629C22.1633 14.8629 22.2378 14.7923 22.2378 14.7054C22.2378 14.6184 22.1633 14.5479 22.0715 14.5479C21.9797 14.5479 21.9053 14.6184 21.9053 14.7054C21.9053 14.7923 21.9797 14.8629 22.0715 14.8629Z" fill="#000088" />
                                      <path d="M18.1387 16.5429L18.7651 14.7429L18.9005 13.8457L18.5442 14.6895L18.1387 16.5429Z" fill="#000088" />
                                      <path d="M21.6379 15.5748C21.7297 15.5748 21.8042 15.5042 21.8042 15.4173C21.8042 15.3303 21.7297 15.2598 21.6379 15.2598C21.5461 15.2598 21.4717 15.3303 21.4717 15.4173C21.4717 15.5042 21.5461 15.5748 21.6379 15.5748Z" fill="#000088" />
                                      <path d="M17.3379 16.228L18.434 14.6451L18.8104 13.8115L18.2368 14.5371L17.3379 16.228Z" fill="#000088" />
                                      <path d="M21.0237 16.1568C21.1155 16.1568 21.1899 16.0863 21.1899 15.9993C21.1899 15.9123 21.1155 15.8418 21.0237 15.8418C20.9319 15.8418 20.8574 15.9123 20.8574 15.9993C20.8574 16.0863 20.9319 16.1568 21.0237 16.1568Z" fill="#000088" />
                                      <path d="M16.6484 15.7276L18.1399 14.4676L18.7337 13.7549L17.9814 14.3146L16.6484 15.7276Z" fill="#000088" />
                                      <path d="M20.2717 16.567C20.3635 16.567 20.438 16.4964 20.438 16.4095C20.438 16.3225 20.3635 16.252 20.2717 16.252C20.1799 16.252 20.1055 16.3225 20.1055 16.4095C20.1055 16.4964 20.1799 16.567 20.2717 16.567Z" fill="#000088" />
                                      <path d="M16.1201 15.0747L17.9049 14.2231L18.6709 13.6797L17.7909 14.0363L16.1201 15.0747Z" fill="#000088" />
                                      <path d="M19.4338 16.7808C19.5256 16.7808 19.6001 16.7103 19.6001 16.6233C19.6001 16.5363 19.5256 16.4658 19.4338 16.4658C19.342 16.4658 19.2676 16.5363 19.2676 16.6233C19.2676 16.7103 19.342 16.7808 19.4338 16.7808Z" fill="#000088" />
                                      <path d="M15.7881 14.315L17.7445 13.9303L18.6351 13.5928L17.6881 13.721L15.7881 14.315Z" fill="#000088" />
                                      <path d="M18.5657 16.7808C18.6575 16.7808 18.7319 16.7103 18.7319 16.6233C18.7319 16.5363 18.6575 16.4658 18.5657 16.4658C18.4738 16.4658 18.3994 16.5363 18.3994 16.6233C18.3994 16.7103 18.4738 16.7808 18.5657 16.7808Z" fill="#000088" />
                                      <path d="M15.6748 13.5006L17.6698 13.6086L18.6198 13.5006L17.6698 13.3926L15.6748 13.5006Z" fill="#000088" />
                                      <path d="M17.7278 16.5689C17.8196 16.5689 17.894 16.4984 17.894 16.4114C17.894 16.3244 17.8196 16.2539 17.7278 16.2539C17.636 16.2539 17.5615 16.3244 17.5615 16.4114C17.5615 16.4984 17.636 16.5689 17.7278 16.5689Z" fill="#000088" />
                                      <path d="M15.7881 12.6855L17.6881 13.279L18.6351 13.4072L17.7445 13.0697L15.7881 12.6855Z" fill="#000088" />
                                      <path d="M16.9758 16.1558C17.0676 16.1558 17.1421 16.0853 17.1421 15.9983C17.1421 15.9113 17.0676 15.8408 16.9758 15.8408C16.884 15.8408 16.8096 15.9113 16.8096 15.9983C16.8096 16.0853 16.884 16.1558 16.9758 16.1558Z" fill="#000088" />
                                      <path d="M16.1201 11.9238L17.7909 12.9622L18.6709 13.3188L17.9049 12.7755L16.1201 11.9238Z" fill="#000088" />
                                      <path d="M16.3616 15.5738C16.4534 15.5738 16.5278 15.5033 16.5278 15.4163C16.5278 15.3293 16.4534 15.2588 16.3616 15.2588C16.2697 15.2588 16.1953 15.3293 16.1953 15.4163C16.1953 15.5033 16.2697 15.5738 16.3616 15.5738Z" fill="#000088" />
                                      <path d="M16.6484 11.2715L17.9784 12.6845L18.7307 13.2442L18.137 12.5315L16.6484 11.2715Z" fill="#000088" />
                                      <path d="M15.928 14.8619C16.0198 14.8619 16.0942 14.7914 16.0942 14.7044C16.0942 14.6174 16.0198 14.5469 15.928 14.5469C15.8362 14.5469 15.7617 14.6174 15.7617 14.7044C15.7617 14.7914 15.8362 14.8619 15.928 14.8619Z" fill="#000088" />
                                      <path d="M17.3369 10.7715L18.2359 12.4624L18.8094 13.188L18.433 12.3544L17.3369 10.7715Z" fill="#000088" />
                                      <path d="M15.7034 14.0679C15.7952 14.0679 15.8696 13.9974 15.8696 13.9104C15.8696 13.8234 15.7952 13.7529 15.7034 13.7529C15.6115 13.7529 15.5371 13.8234 15.5371 13.9104C15.5371 13.9974 15.6115 14.0679 15.7034 14.0679Z" fill="#000088" />
                                      <path d="M18.1387 10.457L18.5448 12.3133L18.901 13.157L18.7657 12.2598L18.1387 10.457Z" fill="#000088" />
                                      <path d="M15.7034 13.2466C15.7952 13.2466 15.8696 13.1761 15.8696 13.0891C15.8696 13.0022 15.7952 12.9316 15.7034 12.9316C15.6115 12.9316 15.5371 13.0022 15.5371 13.0891C15.5371 13.1761 15.6115 13.2466 15.7034 13.2466Z" fill="#000088" />
                                      <path d="M18.9997 10.3496L18.8857 12.2396L18.9997 13.1396L19.1137 12.2396L18.9997 10.3496Z" fill="#000088" />
                                      <path d="M15.928 12.4517C16.0198 12.4517 16.0942 12.3812 16.0942 12.2942C16.0942 12.2072 16.0198 12.1367 15.928 12.1367C15.8362 12.1367 15.7617 12.2072 15.7617 12.2942C15.7617 12.3812 15.8362 12.4517 15.928 12.4517Z" fill="#000088" />
                                      <path d="M19.8604 10.457L19.234 12.257L19.0986 13.1542L19.4549 12.3105L19.8604 10.457Z" fill="#000088" />
                                      <path d="M16.3616 11.7398C16.4534 11.7398 16.5278 11.6693 16.5278 11.5823C16.5278 11.4953 16.4534 11.4248 16.3616 11.4248C16.2697 11.4248 16.1953 11.4953 16.1953 11.5823C16.1953 11.6693 16.2697 11.7398 16.3616 11.7398Z" fill="#000088" />
                                      <path d="M20.662 10.7715L19.5659 12.3544L19.1895 13.188L19.763 12.4624L20.662 10.7715Z" fill="#000088" />
                                      <path d="M16.9758 11.1578C17.0676 11.1578 17.1421 11.0873 17.1421 11.0003C17.1421 10.9133 17.0676 10.8428 16.9758 10.8428C16.884 10.8428 16.8096 10.9133 16.8096 11.0003C16.8096 11.0873 16.884 11.1578 16.9758 11.1578Z" fill="#000088" />
                                      <path d="M21.3509 11.2725L19.8594 12.5325L19.2656 13.2451L20.0179 12.6855L21.3509 11.2725Z" fill="#000088" />
                                      <path d="M17.7288 10.7476C17.8206 10.7476 17.895 10.6771 17.895 10.5901C17.895 10.5031 17.8206 10.4326 17.7288 10.4326C17.6369 10.4326 17.5625 10.5031 17.5625 10.5901C17.5625 10.6771 17.6369 10.7476 17.7288 10.7476Z" fill="#000088" />
                                      <path d="M21.8818 11.9258L20.097 12.7774L19.3311 13.3208L20.211 12.9642L21.8818 11.9258Z" fill="#000088" />
                                      <path d="M18.5676 10.5347C18.6594 10.5347 18.7339 10.4642 18.7339 10.3772C18.7339 10.2902 18.6594 10.2197 18.5676 10.2197C18.4758 10.2197 18.4014 10.2902 18.4014 10.3772C18.4014 10.4642 18.4758 10.5347 18.5676 10.5347Z" fill="#000088" />
                                      <path d="M22.2132 12.6855L20.2568 13.0703L19.3662 13.4078L20.3132 13.2795L22.2132 12.6855Z" fill="#000088" />
                                      <path d="M19.4358 10.5347C19.5276 10.5347 19.602 10.4642 19.602 10.3772C19.602 10.2902 19.5276 10.2197 19.4358 10.2197C19.344 10.2197 19.2695 10.2902 19.2695 10.3772C19.2695 10.4642 19.344 10.5347 19.4358 10.5347Z" fill="#000088" />
                                      <path d="M22.3259 13.4996L20.3309 13.3916L19.3809 13.4996L20.3309 13.6076L22.3259 13.4996Z" fill="#000088" />
                                      <path d="M20.2746 10.7476C20.3665 10.7476 20.4409 10.6771 20.4409 10.5901C20.4409 10.5031 20.3665 10.4326 20.2746 10.4326C20.1828 10.4326 20.1084 10.5031 20.1084 10.5901C20.1084 10.6771 20.1828 10.7476 20.2746 10.7476Z" fill="#000088" />
                                      <path d="M22.2132 14.3154L20.3132 13.722L19.3662 13.5938L20.2568 13.9313L22.2132 14.3154Z" fill="#000088" />
                                      <path d="M21.0237 11.1587C21.1155 11.1587 21.1899 11.0882 21.1899 11.0012C21.1899 10.9143 21.1155 10.8438 21.0237 10.8438C20.9319 10.8438 20.8574 10.9143 20.8574 11.0012C20.8574 11.0882 20.9319 11.1587 21.0237 11.1587Z" fill="#000088" />
                                      <path d="M21.8798 15.0757L20.209 14.0373L19.3291 13.6807L20.095 14.224L21.8798 15.0757Z" fill="#000088" />
                                      <path d="M21.6389 11.7408C21.7307 11.7408 21.8051 11.6703 21.8051 11.5833C21.8051 11.4963 21.7307 11.4258 21.6389 11.4258C21.5471 11.4258 21.4727 11.4963 21.4727 11.5833C21.4727 11.6703 21.5471 11.7408 21.6389 11.7408Z" fill="#000088" />
                                      <path d="M21.3518 15.7285L20.0218 14.3155L19.2695 13.7559L19.8633 14.4685L21.3518 15.7285Z" fill="#000088" />
                                      <path d="M22.0725 12.4527C22.1643 12.4527 22.2388 12.3822 22.2388 12.2952C22.2388 12.2082 22.1643 12.1377 22.0725 12.1377C21.9807 12.1377 21.9062 12.2082 21.9062 12.2952C21.9062 12.3822 21.9807 12.4527 22.0725 12.4527Z" fill="#000088" />
                                      <path d="M20.6629 16.229L19.764 14.5381L19.1904 13.8125L19.5669 14.6461L20.6629 16.229Z" fill="#000088" />
                                      <path d="M22.2981 13.2466C22.3899 13.2466 22.4643 13.1761 22.4643 13.0891C22.4643 13.0022 22.3899 12.9316 22.2981 12.9316C22.2063 12.9316 22.1318 13.0022 22.1318 13.0891C22.1318 13.1761 22.2063 13.2466 22.2981 13.2466Z" fill="#000088" />
                                      <path d="M19.861 16.5429L19.4549 14.6895L19.0986 13.8457L19.234 14.7429L19.861 16.5429Z" fill="#000088" />
                                  </g>
                                  <defs>
                                      <clipPath id="clip0">
                                          <rect width="38" height="27" fill="white" />
                                      </clipPath>
                                  </defs>
                              </svg>