<?xml version="1.0" encoding="utf-8"?>
<!-- Generator: Adobe Illustrator 27.1.0, SVG Export Plug-In . SVG Version: 6.00 Build 0)  -->
<svg version="1.1" id="Layer_1" xmlns="http://www.w3.org/2000/svg" xmlns:xlink="http://www.w3.org/1999/xlink" x="0px" y="0px"
	 viewBox="0 0 1080 367.12" style="enable-background:new 0 0 1080 367.12;" xml:space="preserve">
<style type="text/css">
	.st0{fill:url(#SVGID_1_);}
	.st1{fill:#034F61;}
	.st2{fill:none;stroke:#034F61;stroke-width:2;stroke-miterlimit:10;}
	.st3{fill:none;stroke:#FFFFFF;stroke-width:3;stroke-miterlimit:10;}
	.st4{fill:#FFFFFF;}
	.st5{fill:none;stroke:#298999;stroke-width:2;stroke-miterlimit:10;}
	.st6{fill:#298999;}
	.st7{fill:#0D464C;}
	.st8{fill:#14BDC6;}
	.st9{fill:#0A828E;}
	.st10{fill:none;stroke:#FFFFFF;stroke-miterlimit:10;}
	.st11{fill:none;stroke:#FFFFFF;stroke-miterlimit:10;stroke-dasharray:12;}
	.st12{fill:none;stroke:#066472;stroke-miterlimit:10;}
	.st13{fill:#066472;}
	.st14{fill:#53C9EB;}
</style>
<g>
	<path class="st1" d="M245.68,299.25H97.12c-19.76,0-35.79-16.02-35.79-35.79v-132.3c0-19.76,16.02-35.79,35.79-35.79h148.56
		c19.76,0,35.79,16.02,35.79,35.79v132.3C281.47,283.23,265.44,299.25,245.68,299.25z"/>
	<g>
		<path d="M321.5,289.41h16.05v2.34h-18.82v-43.17h2.77V289.41z"/>
		<path d="M401.51,289.44c-3.2-1.86-5.7-4.48-7.5-7.84c-1.8-3.36-2.71-7.15-2.71-11.38c0-4.26,0.9-8.07,2.71-11.41
			c1.8-3.34,4.31-5.94,7.5-7.81c3.2-1.86,6.79-2.8,10.76-2.8c3.98,0,7.56,0.93,10.76,2.8c3.2,1.87,5.7,4.47,7.5,7.81
			c1.8,3.34,2.71,7.14,2.71,11.41c0,4.22-0.9,8.02-2.71,11.38c-1.81,3.36-4.31,5.98-7.5,7.84s-6.79,2.8-10.76,2.8
			C408.29,292.24,404.7,291.3,401.51,289.44z M421.49,287.38c2.75-1.6,4.91-3.87,6.49-6.83c1.58-2.95,2.37-6.4,2.37-10.33
			c0-3.98-0.79-7.44-2.37-10.39c-1.58-2.95-3.74-5.23-6.49-6.83c-2.75-1.6-5.82-2.4-9.22-2.4c-3.4,0-6.48,0.8-9.23,2.4
			c-2.75,1.6-4.92,3.87-6.52,6.83c-1.6,2.95-2.4,6.42-2.4,10.39c0,3.94,0.8,7.38,2.4,10.33c1.6,2.95,3.77,5.23,6.52,6.83
			c2.75,1.6,5.82,2.4,9.23,2.4C415.67,289.78,418.75,288.98,421.49,287.38z"/>
		<path d="M526.28,261.3c-1.23-3.24-3.27-5.82-6.12-7.75c-2.85-1.93-6.22-2.89-10.12-2.89c-3.4,0-6.48,0.8-9.23,2.4
			c-2.75,1.6-4.92,3.88-6.52,6.83c-1.6,2.95-2.4,6.39-2.4,10.33c0,3.94,0.8,7.38,2.4,10.33c1.6,2.95,3.77,5.22,6.52,6.8
			c2.75,1.58,5.82,2.37,9.23,2.37c3.28,0,6.25-0.74,8.92-2.21c2.66-1.48,4.8-3.58,6.4-6.3c1.6-2.73,2.48-5.91,2.64-9.56h-19.25
			v-2.34h22.08v1.84c-0.12,4.02-1.09,7.63-2.89,10.82c-1.8,3.2-4.26,5.7-7.38,7.5c-3.12,1.81-6.62,2.71-10.52,2.71
			c-3.98,0-7.56-0.93-10.76-2.8c-3.2-1.86-5.7-4.47-7.5-7.81c-1.8-3.34-2.71-7.12-2.71-11.35c0-4.26,0.9-8.07,2.71-11.41
			c1.8-3.34,4.31-5.94,7.5-7.81c3.2-1.86,6.79-2.8,10.76-2.8c4.63,0,8.64,1.16,12.02,3.47c3.38,2.32,5.85,5.53,7.41,9.62H526.28z"/>
		<path d="M591.17,248.57v43.17h-2.77v-43.17H591.17z"/>
		<path d="M663.67,270.16l12.98,21.59h-3.14l-11.62-19.37l-11.13,19.37h-3.07l12.79-21.77l-12.85-21.4h3.14l11.5,19.19l11.32-19.19
			h3.14L663.67,270.16z"/>
	</g>
	<g>
		<path class="st1" d="M417.59,132.64c-2.69-6.25-6.37-11.71-11.03-16.37c-4.67-4.67-10.12-8.34-16.37-11.03
			c-6.25-2.69-12.93-4.04-20.05-4.04c-7.12,0-13.8,1.35-20.05,4.04c-6.25,2.69-11.69,6.37-16.33,11.03
			c-4.64,4.67-8.3,10.12-10.99,16.37c-2.69,6.25-4.04,12.93-4.04,20.05v77.15h25.66V204.1h51.5v25.75h25.75v-77.15
			C421.63,145.58,420.29,138.89,417.59,132.64z M400.36,182.91h-60.44v-30.22c0-4.14,0.79-8.06,2.37-11.74
			c1.58-3.68,3.74-6.9,6.48-9.63c2.74-2.74,5.95-4.9,9.63-6.48c3.68-1.58,7.6-2.37,11.74-2.37c4.14,0,8.05,0.79,11.74,2.37
			c3.69,1.58,6.9,3.74,9.63,6.48c2.74,2.74,4.9,5.95,6.48,9.63c1.58,3.68,2.37,7.6,2.37,11.74V182.91z"/>
		<path class="st1" d="M494.12,229.85h-55.98v-24.4h55.98c1.67,0,3.11-0.6,4.31-1.79c1.2-1.2,1.79-2.63,1.79-4.31
			c0-1.73-0.6-2.87-1.79-3.41c-1.2-0.54-2.63-0.81-4.31-0.81h-25.48c-4.25,0-8.23-0.81-11.93-2.42c-3.71-1.62-6.94-3.81-9.69-6.59
			c-2.75-2.78-4.92-6.03-6.5-9.73c-1.58-3.71-2.38-7.68-2.38-11.93s0.79-8.22,2.38-11.93c1.58-3.71,3.75-6.94,6.5-9.69
			c2.75-2.75,5.98-4.92,9.69-6.51c3.71-1.58,7.68-2.38,11.93-2.38h49.61v24.4h-49.61c-1.68,0-3.11,0.6-4.31,1.79
			c-1.2,1.2-1.79,2.63-1.79,4.31c0,1.73,0.6,3.21,1.79,4.44c1.2,1.23,2.63,1.84,4.31,1.84h25.48c4.18,0,8.13,0.7,11.84,2.11
			c3.71,1.41,6.94,3.36,9.69,5.88c2.75,2.51,4.93,5.53,6.55,9.06c1.61,3.53,2.42,7.39,2.42,11.57c0,4.25-0.81,8.21-2.42,11.89
			c-1.62,3.68-3.8,6.91-6.55,9.69c-2.75,2.78-5.98,4.97-9.69,6.55C502.25,229.05,498.3,229.85,494.12,229.85z"/>
		<path class="st1" d="M590.38,229.85H534.4v-24.4h55.98c1.67,0,3.11-0.6,4.31-1.79c1.2-1.2,1.79-2.63,1.79-4.31
			c0-1.73-0.6-2.87-1.79-3.41c-1.2-0.54-2.63-0.81-4.31-0.81H564.9c-4.25,0-8.23-0.81-11.93-2.42c-3.71-1.62-6.94-3.81-9.69-6.59
			c-2.75-2.78-4.92-6.03-6.5-9.73c-1.58-3.71-2.38-7.68-2.38-11.93s0.79-8.22,2.38-11.93c1.58-3.71,3.75-6.94,6.5-9.69
			s5.98-4.92,9.69-6.51c3.71-1.58,7.68-2.38,11.93-2.38h49.61v24.4H564.9c-1.68,0-3.11,0.6-4.31,1.79c-1.2,1.2-1.79,2.63-1.79,4.31
			c0,1.73,0.6,3.21,1.79,4.44c1.2,1.23,2.63,1.84,4.31,1.84h25.48c4.18,0,8.13,0.7,11.84,2.11c3.71,1.41,6.94,3.36,9.69,5.88
			c2.75,2.51,4.93,5.53,6.55,9.06c1.61,3.53,2.42,7.39,2.42,11.57c0,4.25-0.81,8.21-2.42,11.89c-1.62,3.68-3.8,6.91-6.55,9.69
			c-2.75,2.78-5.98,4.97-9.69,6.55C598.51,229.05,594.57,229.85,590.38,229.85z"/>
		<path class="st1" d="M672.11,206.34c0.96,0.3,1.91,0.49,2.87,0.58c0.96,0.09,1.91,0.14,2.87,0.14c2.39,0,4.69-0.33,6.91-0.99
			c2.21-0.66,4.29-1.6,6.24-2.83c1.94-1.22,3.68-2.72,5.2-4.48c1.53-1.76,2.77-3.72,3.72-5.88l17.94,18.03
			c-2.27,3.23-4.89,6.13-7.85,8.7c-2.96,2.57-6.16,4.75-9.6,6.55c-3.44,1.79-7.06,3.16-10.85,4.08c-3.8,0.93-7.7,1.39-11.71,1.39
			c-6.76,0-13.11-1.26-19.06-3.77c-5.95-2.51-11.16-6.01-15.61-10.5c-4.46-4.48-7.97-9.82-10.54-16.01
			c-2.57-6.19-3.86-12.99-3.86-20.41c0-7.59,1.29-14.53,3.86-20.81c2.57-6.28,6.09-11.63,10.54-16.06
			c4.45-4.43,9.66-7.86,15.61-10.32c5.95-2.45,12.3-3.68,19.06-3.68c4.01,0,7.92,0.48,11.75,1.44c3.83,0.96,7.46,2.33,10.9,4.13
			c3.44,1.79,6.65,3.99,9.64,6.59c2.99,2.6,5.62,5.52,7.89,8.75L672.11,206.34z M684.67,155.83c-1.14-0.42-2.26-0.69-3.36-0.81
			c-1.11-0.12-2.26-0.18-3.45-0.18c-3.35,0-6.5,0.61-9.46,1.84c-2.96,1.23-5.53,2.98-7.72,5.25c-2.19,2.27-3.9,5.01-5.16,8.21
			c-1.26,3.2-1.88,6.81-1.88,10.81c0,0.9,0.04,1.92,0.14,3.05c0.09,1.14,0.24,2.29,0.45,3.45c0.21,1.17,0.46,2.29,0.76,3.36
			c0.3,1.08,0.69,2.03,1.17,2.87L684.67,155.83z"/>
		<path class="st1" d="M754.82,229.85h-24.49v-96.08h5.92l8.07,11.39c3.95-3.59,8.43-6.35,13.46-8.3
			c5.02-1.94,10.23-2.92,15.61-2.92h21.62v24.4h-21.62c-2.57,0-4.99,0.48-7.27,1.44c-2.27,0.96-4.25,2.27-5.92,3.95
			c-1.67,1.68-2.99,3.65-3.95,5.92c-0.96,2.27-1.43,4.7-1.43,7.27V229.85z"/>
		<path class="st1" d="M854.59,229.85c-5.92,0-11.48-1.12-16.69-3.36c-5.2-2.24-9.76-5.32-13.68-9.24c-3.92-3.92-7-8.48-9.24-13.68
			c-2.24-5.2-3.36-10.77-3.36-16.69v-28.53h-11.93v-24.4h11.93v-38.4h24.4v38.4h37.14v24.4h-37.14v28.53c0,2.57,0.48,4.98,1.44,7.22
			c0.96,2.24,2.27,4.2,3.95,5.88c1.67,1.68,3.65,3.01,5.92,3.99c2.27,0.99,4.69,1.48,7.27,1.48h18.57v24.4H854.59z"/>
		<path class="st1" d="M911.68,229.85h-24.67v-96.08h24.67V229.85z"/>
		<path class="st1" d="M957.49,229.85l-36.6-96.08h27.9l20.99,59.93l20.9-59.93h27.99l-36.6,96.08H957.49z"/>
		<path class="st1" d="M928.84,97.36c0,16.29-13.21,29.5-29.5,29.5c-16.29,0-29.5-13.21-29.5-29.5s13.21-29.5,29.5-29.5
			C915.64,67.87,928.84,81.07,928.84,97.36L928.84,97.36z M919.86,76.85l-3.46-2.96l-3.88-2.38l-4.21-1.74l-2.66,1.43l0.27,2.39
			l-2.34,1.66l-0.99,1.48l0.04-1.51l-3.31-0.77l-2.8,2.22l-0.88,0.97l-1.76,0.61l0.67,2.11l1.39-0.7l0.55,1.35l1.16-0.15l0.52-1.51
			l-0.35-1.23l1.54-1.76l0.12,0.58l-0.68,1.16l0.52,0.97l1.64-0.37l-1.54,0.87l-0.46,1.93l-2.45,0.52l-0.9-0.29l0.18-1.44
			l-1.07,0.43l0.24,1.29l-1.56,0.5l-1.38,1.23l-2.34,0.91l0.88,1.31l-0.5,1.54l-2.57-0.44l-0.5,0.37l-0.78,3l0.56,0.21l0.57,0.84
			l0.7-0.35l0.96,0.09l1.19-0.94l-0.13-0.59l0.74-0.8l0.59-0.1l0.48-0.43l-0.07-0.48l0.55-0.33l0.84,0.3l1.25-0.7l0.62,0.47l0.9,1.2
			l1.28,0.75l0.3,0.67l-0.21,0.62l0.14,0.08l0.55-0.8l-0.24-0.52l0.17-0.29l0.52,0.37l0.1-0.21l-1.18-0.7l-0.04-0.16l-0.89-0.41
			l-0.15-0.52l-0.57-0.61l0.14-0.52l0.46-0.16l1.22,1.29l1.65,0.94l0.01,0.92l1.19,1.85l0.57,0.24l-0.17-0.75l0.55-0.1l-0.03-0.48
			l-0.61-0.29l-0.17-0.8l0.54,0.16l-0.02-0.38l1.21-0.09l-0.1,0.81l0.31,0.66l0.95,0.81l1.02,0.12l0.01-0.41l1.21,0.28l0.77-0.61
			l0.65-0.19l0.19,1.46l-0.32,1.86l-0.72,0.41l-0.39,0.03l-0.54-0.2l-0.96,0.62l-1.83-0.3l-1.33-0.22l-0.14-0.24l-0.86-0.07
			l-0.6,0.53l0.06,0.89l-0.64,0.21l-1.91-0.79l-0.63-0.63l-1.63-0.39l-0.17-0.54l0.44-0.62l-0.49-1.06l-2.46,0.17l-2.04,0.15
			l-1.29,0.55l-1.28-0.2l-0.26-0.35l-0.82,1.1l-1.5,1.17L884.63,95l-2.12,1.58l-1.68,2.54l0.26,1.25l-0.62,2.75l0.62,1.82l1.4,2.48
			l2.41,2.1l3.15,0.26l2.9-0.6l1.49,1.31l2.16,0.74l-0.18,2.2l2.65,3.24l0.52,1.74l-0.84,1.28l0.32,1.33l2.04,2.36l1.86,1.44
			l3.13-0.37l3.7-2.29l1.26-2.02l2.98-2.56l-0.52-3.81l2.72-4.29l2.41-2.98l0.54-3.6l-2.93,1.87l-1-1.15l-2.89-2.05l-1.84-3.02
			l-1.28-1.87l-1.02-1.29l-0.32-1.1l0.63,1.08l0.76,0.63l0.14-1.4l0.3,1.08l1.67,2.13l1.03,0.69l0.34,1.27l1.51,1.3l1.42,2.51
			l1.96-1.21l2.7-3.01l1.06-3.82l-1.85-1.16l-0.96,1.37l-1.39-0.27l-1.68-1.98l0.39-0.72l2.3,1.43l1.27-0.66l0.72,0.57l2.83-1.37
			l2.08,1.59l0.2-0.82l1.9,3.83l0.84,2.28l0.39-1.79l-0.54-2.82l0.22-3.92l0.18-2.17l0.62-0.52l-1.74-4.21l-2.38-3.88L919.86,76.85z
			 M913.48,83.46l0.46,0.91l0.68-0.22l-0.17-0.87l-0.55-0.58L913.48,83.46z M909.81,84.82l0.55,0.87l1.59,1.46l0.25,1.67l1.61,0.19
			l0.68-0.41l-1.89-2.69l-1.29-0.94l0.3-0.9l-0.55-0.46L909.81,84.82z M905.05,85.41l0.98,0.28l-1.15,0.77l-0.41-0.52l0.25-0.33
			l-0.78-0.31l-1.14,1.5l-0.14,1.64l1.11,0.12l2-0.85l2.78,0.17l0.24-0.72l-2.37-1.3l0.09-1.23L905.05,85.41z M907.82,112.02
			l-0.13,1.04l0.55-0.02l0.71-1.18l-0.28-0.25L907.82,112.02z M906.34,115.37l0.93,0.73l-1.12-2.16L906.34,115.37z M903.78,69.63
			l0.11-0.92l-4.54-0.36l-4.54,0.36l-4.43,1.06L889.57,71l3.42-0.78l-2.52,1.04l-4.15,2.93l-2.4,1.58l0.02,1.09l2.95-1.81l1.87-0.3
			l2.31-0.39l3.2-2.61l-0.2,0.66l2.51-0.94l4.12-0.6L903.78,69.63z M894.61,89.36l-0.23-0.39l-0.41,0.33l0.11,0.33l-0.13,0.62
			l0.48-0.11L894.61,89.36z M894.61,88.26l-0.13-0.16l-0.34,0.24l0.21,0.55L894.61,88.26z M897.05,91.17l0.2-0.5l-0.49,0.22
			l-0.85-0.09l0,0.25l1.01,0.61l0.24-0.14L897.05,91.17z M902.69,92.08l-0.43,0.12l-1-0.11l0.8,0.36L902.69,92.08z M906.53,91.35
			l-0.67,0.31l-0.35,0.26l0.22,0.17l0.46-0.22L906.53,91.35z M915.47,118.27l1.12-2.04l-0.06-1.17l-0.98,1.37l-1.99,1.4l-0.03,1.12
			l-0.78,0.81l0.08,1.23L915.47,118.27z"/>
	</g>
	<g>
		<path class="st4" d="M112.79,138.04h61.25c7.84,1.33,14.26,5.41,17.31,16.01h20.37c-2.52-19.59-13.68-32.44-36.44-36.24H93.3
			l0,0.89C102.32,122.74,108.96,129.04,112.79,138.04z"/>
		<path class="st4" d="M191.78,158.01v118.81h72.93l0-0.77c-9.37-3.47-15.07-10.82-19.61-19.39h-33.17v-98.64H191.78z"/>
		<path class="st4" d="M160.06,236.83h-15.09c-6.56,0-11.87-5.31-11.87-11.87v-15.09c0-6.56,5.31-11.87,11.87-11.87h26.96v26.96
			C171.93,231.52,166.61,236.83,160.06,236.83z"/>
		<path class="st4" d="M188.13,276.82v-43.03c0,0-7.9,21.13-35.06,23.03c-27.16,1.9-47.71-29.22-37.56-53s26.9-27.74,56.42-25.75
			v-20.06c0,0-51.46-10.4-73.75,33.68c-8.21,16.24-6.71,33.05-1.53,47.81c0,0,13.87,37.32,55.87,37.32H188.13z"/>
	</g>
</g>
</svg>
