<svg width="35" height="27" viewBox="0 0 35 27" fill="none" xmlns="http://www.w3.org/2000/svg">
  <g clip-path="url(#clip0)">
  <path fill-rule="evenodd" clip-rule="evenodd" d="M0 0H49.8755V2.07694H0V0ZM0 4.15389H49.8755V6.23083H0V4.15389ZM0 8.30777H49.8755V10.3847H0V8.30777ZM0 12.4617H49.8755V14.5386H0V12.4617ZM0 16.6155H49.8755V18.6925H0V16.6155ZM0 20.7694H49.8755V22.8464H0V20.7694ZM0 24.9233H49.8755V27.0003H0V24.9233Z" fill="#E01E26"></path>
<path fill-rule="evenodd" clip-rule="evenodd" d="M0 2.07715H49.8755V4.15409H0V2.07715ZM0 6.23104H49.8755V8.30798H0V6.23104ZM0 10.3849H49.8755V12.4619H0V10.3849ZM0 14.5388H49.8755V16.6158H0V14.5388ZM0 18.6927H49.8755V20.7696H0V18.6927ZM0 22.8466H49.8755V24.9235H0V22.8466Z" fill="white"></path>
<path fill-rule="evenodd" clip-rule="evenodd" d="M0 0H19.95V14.5383H0V0Z" fill="#2D3091"></path>
<path fill-rule="evenodd" clip-rule="evenodd" d="M1.66347 0.62207L1.84496 1.19666H2.43241L1.95714 1.55183L2.13869 2.12643L1.66342 1.77131L1.18825 2.12643L1.36975 1.55183L0.894531 1.19666H1.48193L1.66347 0.62207ZM4.98845 0.62207L5.16999 1.19666H5.75744L5.28217 1.55183L5.46371 2.12643L4.98845 1.77131L4.51328 2.12643L4.69478 1.55183L4.21956 1.19666H4.80695L4.98845 0.62207ZM8.31358 0.62207L8.49507 1.19666H9.08252L8.60725 1.55183L8.78879 2.12643L8.31358 1.77131L7.83836 2.12643L8.01985 1.55183L7.54464 1.19666H8.13208L8.31358 0.62207ZM11.6385 0.62207L11.82 1.19666H12.4074L11.9322 1.55183L12.1137 2.12643L11.6385 1.77131L11.1632 2.12643L11.3448 1.55183L10.8695 1.19666H11.457L11.6385 0.62207ZM14.9636 0.62207L15.1451 1.19666H15.7325L15.2573 1.55183L15.4388 2.12643L14.9635 1.77131L14.4884 2.12643L14.6699 1.55183L14.1946 1.19666H14.782L14.9636 0.62207ZM18.2887 0.62207L18.4702 1.19666H19.0576L18.5823 1.55183L18.7639 2.12643L18.2887 1.77131L17.8134 2.12643L17.995 1.55183L17.5197 1.19666H18.1072L18.2887 0.62207Z" fill="white"></path>
<path fill-rule="evenodd" clip-rule="evenodd" d="M3.32656 2.07617L3.50805 2.65076H4.0955L3.62023 3.00588L3.80183 3.58052L3.32656 3.22541L2.85134 3.58052L3.03283 3.00588L2.55762 2.65076H3.14506L3.32656 2.07617ZM6.65149 2.07617L6.83298 2.65076H7.42038L6.94516 3.00588L7.12666 3.58052L6.65149 3.22541L6.17622 3.58052L6.35777 3.00588L5.8825 2.65076H6.46994L6.65149 2.07617ZM9.97657 2.07617L10.1581 2.65076H10.7455L10.2702 3.00588L10.4518 3.58052L9.97652 3.22541L9.50136 3.58052L9.68285 3.00588L9.20763 2.65076H9.79503L9.97657 2.07617ZM13.3017 2.07617L13.4832 2.65076H14.0706L13.5953 3.00588L13.7769 3.58052L13.3017 3.22541L12.8264 3.58052L13.008 3.00588L12.5328 2.65076H13.1202L13.3017 2.07617ZM16.6266 2.07617L16.8081 2.65076H17.3955L16.9203 3.00588L17.1018 3.58052L16.6266 3.22541L16.1513 3.58052L16.3329 3.00588L15.8576 2.65076H16.445L16.6266 2.07617Z" fill="white"></path>
<path fill-rule="evenodd" clip-rule="evenodd" d="M1.66347 3.53027L1.84496 4.10487H2.43241L1.95714 4.46003L2.13869 5.03462L1.66342 4.67951L1.18825 5.03462L1.36975 4.46003L0.894531 4.10487H1.48193L1.66347 3.53027ZM4.98845 3.53027L5.16999 4.10487H5.75744L5.28217 4.46003L5.46371 5.03462L4.98845 4.67951L4.51328 5.03462L4.69478 4.46003L4.21956 4.10487H4.80695L4.98845 3.53027ZM8.31358 3.53027L8.49507 4.10487H9.08252L8.60725 4.46003L8.78879 5.03462L8.31358 4.67951L7.83836 5.03462L8.01985 4.46003L7.54464 4.10487H8.13208L8.31358 3.53027ZM11.6385 3.53027L11.82 4.10487H12.4074L11.9322 4.46003L12.1137 5.03462L11.6385 4.67951L11.1632 5.03462L11.3448 4.46003L10.8695 4.10487H11.457L11.6385 3.53027ZM14.9636 3.53027L15.1451 4.10487H15.7325L15.2573 4.46003L15.4388 5.03462L14.9635 4.67951L14.4884 5.03462L14.6699 4.46003L14.1946 4.10487H14.782L14.9636 3.53027ZM18.2887 3.53027L18.4702 4.10487H19.0576L18.5823 4.46003L18.7639 5.03462L18.2887 4.67951L17.8134 5.03462L17.995 4.46003L17.5197 4.10487H18.1072L18.2887 3.53027Z" fill="white"></path>
<path fill-rule="evenodd" clip-rule="evenodd" d="M3.32656 4.98438L3.50805 5.55902H4.0955L3.62023 5.91413L3.80183 6.48878L3.32656 6.13366L2.85134 6.48878L3.03283 5.91413L2.55762 5.55902H3.14506L3.32656 4.98438ZM6.65149 4.98438L6.83298 5.55902H7.42038L6.94516 5.91413L7.12666 6.48878L6.65149 6.13366L6.17622 6.48878L6.35777 5.91413L5.8825 5.55902H6.46994L6.65149 4.98438ZM9.97657 4.98438L10.1581 5.55902H10.7455L10.2702 5.91413L10.4518 6.48878L9.97652 6.13366L9.50136 6.48878L9.68285 5.91413L9.20763 5.55902H9.79503L9.97657 4.98438ZM13.3017 4.98438L13.4832 5.55902H14.0706L13.5953 5.91413L13.7769 6.48878L13.3017 6.13366L12.8264 6.48878L13.008 5.91413L12.5327 5.55902H13.1202L13.3017 4.98438ZM16.6266 4.98438L16.8081 5.55902H17.3955L16.9203 5.91413L17.1018 6.48878L16.6266 6.13366L16.1513 6.48878L16.3329 5.91413L15.8576 5.55902H16.445L16.6266 4.98438Z" fill="white"></path>
<path fill-rule="evenodd" clip-rule="evenodd" d="M1.66347 6.4375L1.84496 7.0121H2.43241L1.95714 7.36727L2.13869 7.94186L1.66342 7.58675L1.18825 7.94186L1.36975 7.36727L0.894531 7.0121H1.48193L1.66347 6.4375ZM4.98845 6.4375L5.16999 7.0121H5.75744L5.28217 7.36727L5.46371 7.94186L4.98845 7.58675L4.51328 7.94186L4.69478 7.36727L4.21956 7.0121H4.80695L4.98845 6.4375ZM8.31358 6.4375L8.49507 7.0121H9.08252L8.60725 7.36727L8.78879 7.94186L8.31358 7.58675L7.83836 7.94186L8.01985 7.36727L7.54464 7.0121H8.13208L8.31358 6.4375ZM11.6385 6.4375L11.82 7.0121H12.4074L11.9322 7.36727L12.1137 7.94186L11.6385 7.58675L11.1632 7.94186L11.3448 7.36727L10.8695 7.0121H11.457L11.6385 6.4375ZM14.9636 6.4375L15.1451 7.0121H15.7325L15.2573 7.36727L15.4388 7.94186L14.9635 7.58675L14.4884 7.94186L14.6699 7.36727L14.1946 7.0121H14.782L14.9636 6.4375ZM18.2887 6.4375L18.4702 7.0121H19.0576L18.5823 7.36727L18.7639 7.94186L18.2887 7.58675L17.8134 7.94186L17.995 7.36727L17.5197 7.0121H18.1072L18.2887 6.4375Z" fill="white"></path>
<path fill-rule="evenodd" clip-rule="evenodd" d="M3.32656 7.8916L3.50805 8.46624H4.0955L3.62023 8.82135L3.80183 9.396L3.32656 9.04089L2.85134 9.396L3.03283 8.82135L2.55762 8.46624H3.14506L3.32656 7.8916ZM6.65149 7.8916L6.83298 8.46624H7.42038L6.94516 8.82135L7.12666 9.396L6.65149 9.04089L6.17622 9.396L6.35777 8.82135L5.8825 8.46624H6.46994L6.65149 7.8916ZM9.97657 7.8916L10.1581 8.46624H10.7455L10.2702 8.82135L10.4518 9.396L9.97652 9.04089L9.50136 9.396L9.68285 8.82135L9.20763 8.46624H9.79503L9.97657 7.8916ZM13.3017 7.8916L13.4832 8.46624H14.0706L13.5953 8.82135L13.7769 9.396L13.3017 9.04089L12.8264 9.396L13.008 8.82135L12.5327 8.46624H13.1202L13.3017 7.8916ZM16.6266 7.8916L16.8081 8.46624H17.3955L16.9203 8.82135L17.1018 9.396L16.6266 9.04089L16.1513 9.396L16.3329 8.82135L15.8576 8.46624H16.445L16.6266 7.8916Z" fill="white"></path>
<path fill-rule="evenodd" clip-rule="evenodd" d="M1.66347 9.3457L1.84496 9.92029H2.43241L1.95714 10.2755L2.13869 10.85L1.66342 10.4949L1.18825 10.85L1.36975 10.2755L0.894531 9.92029H1.48193L1.66347 9.3457ZM4.98845 9.3457L5.16999 9.92029H5.75744L5.28217 10.2755L5.46371 10.85L4.98845 10.4949L4.51328 10.85L4.69478 10.2755L4.21956 9.92029H4.80695L4.98845 9.3457ZM8.31358 9.3457L8.49507 9.92029H9.08252L8.60725 10.2755L8.78879 10.85L8.31358 10.4949L7.83836 10.85L8.01985 10.2755L7.54464 9.92029H8.13208L8.31358 9.3457ZM11.6385 9.3457L11.82 9.92029H12.4074L11.9322 10.2755L12.1137 10.85L11.6385 10.4949L11.1632 10.85L11.3448 10.2755L10.8695 9.92029H11.457L11.6385 9.3457ZM14.9636 9.3457L15.1451 9.92029H15.7325L15.2573 10.2755L15.4388 10.85L14.9635 10.4949L14.4884 10.85L14.6699 10.2755L14.1946 9.92029H14.782L14.9636 9.3457ZM18.2887 9.3457L18.4702 9.92029H19.0576L18.5823 10.2755L18.7639 10.85L18.2887 10.4949L17.8134 10.85L17.995 10.2755L17.5197 9.92029H18.1072L18.2887 9.3457Z" fill="white"></path>
<path fill-rule="evenodd" clip-rule="evenodd" d="M3.32656 10.7998L3.50805 11.3745H4.0955L3.62023 11.7296L3.80183 12.3042L3.32656 11.9491L2.85134 12.3042L3.03283 11.7296L2.55762 11.3745H3.14506L3.32656 10.7998ZM6.65149 10.7998L6.83298 11.3745H7.42038L6.94516 11.7296L7.12666 12.3042L6.65149 11.9491L6.17622 12.3042L6.35777 11.7296L5.8825 11.3745H6.46994L6.65149 10.7998ZM9.97657 10.7998L10.1581 11.3745H10.7455L10.2702 11.7296L10.4518 12.3042L9.97652 11.9491L9.50136 12.3042L9.68285 11.7296L9.20763 11.3745H9.79503L9.97657 10.7998ZM13.3017 10.7998L13.4832 11.3745H14.0706L13.5953 11.7296L13.7769 12.3042L13.3017 11.9491L12.8264 12.3042L13.008 11.7296L12.5327 11.3745H13.1202L13.3017 10.7998ZM16.6266 10.7998L16.8081 11.3745H17.3955L16.9203 11.7296L17.1018 12.3042L16.6266 11.9491L16.1513 12.3042L16.3329 11.7296L15.8576 11.3745H16.445L16.6266 10.7998Z" fill="white"></path>
<path fill-rule="evenodd" clip-rule="evenodd" d="M1.66347 12.252L1.84496 12.8266H2.43241L1.95714 13.1817L2.13869 13.7563L1.66342 13.4012L1.18825 13.7563L1.36975 13.1817L0.894531 12.8266H1.48193L1.66347 12.252ZM4.98845 12.252L5.16999 12.8266H5.75744L5.28217 13.1817L5.46371 13.7563L4.98845 13.4012L4.51328 13.7563L4.69478 13.1817L4.21956 12.8266H4.80695L4.98845 12.252ZM8.31358 12.252L8.49507 12.8266H9.08252L8.60725 13.1817L8.78879 13.7563L8.31358 13.4012L7.83836 13.7563L8.01985 13.1817L7.54464 12.8266H8.13208L8.31358 12.252ZM11.6385 12.252L11.82 12.8266H12.4074L11.9322 13.1817L12.1137 13.7563L11.6385 13.4012L11.1632 13.7563L11.3448 13.1817L10.8695 12.8266H11.457L11.6385 12.252ZM14.9636 12.252L15.1451 12.8266H15.7325L15.2573 13.1817L15.4388 13.7563L14.9635 13.4012L14.4884 13.7563L14.6699 13.1817L14.1946 12.8266H14.782L14.9636 12.252ZM18.2887 12.252L18.4702 12.8266H19.0576L18.5823 13.1817L18.7639 13.7563L18.2887 13.4012L17.8134 13.7563L17.995 13.1817L17.5197 12.8266H18.1072L18.2887 12.252Z" fill="white"></path>
</g>
<defs>
<clipPath id="clip0">
<rect width="35" height="27" fill="white"></rect>
</clipPath>
</defs>
</svg>