<svg width="20" height="20" viewBox="0 0 20 20" fill="none" xmlns="http://www.w3.org/2000/svg">
<g clip-path="url(#clip0)">
<path d="M17.0102 2.90641C15.1383 1.03328 12.6494 0.00114284 9.9975 0C4.53295 0 0.0859076 4.44562 0.0837198 9.90993C0.0830831 11.6566 0.539469 13.3616 1.40694 14.8646L0.000488281 20L5.2559 18.622C6.70386 19.4116 8.33418 19.8277 9.99324 19.8284H9.99745H9.9975C15.4612 19.8284 19.9089 15.382 19.9112 9.91796C19.9121 7.2697 18.8818 4.77968 17.0102 2.90641ZM9.9975 18.1546H9.99428C8.51548 18.1538 7.06531 17.7568 5.80041 17.0062L5.49939 16.8278L2.38072 17.6454L3.21336 14.6059L3.01723 14.2942C2.19235 12.9827 1.75687 11.4669 1.75749 9.91057C1.75931 5.36881 5.45552 1.67389 10.0006 1.67389C12.2016 1.6748 14.2703 2.53272 15.8261 4.08961C17.3818 5.64649 18.2379 7.71614 18.2373 9.91726C18.2354 14.4592 14.539 18.1546 9.9975 18.1546Z" fill="#E0E0E0"/>
<path d="M0.455566 19.4302L1.79777 14.5294C0.969715 13.0951 0.534259 11.4678 0.534782 9.80126C0.536953 4.58666 4.7809 0.344238 9.99538 0.344238C12.5262 0.345381 14.9016 1.33032 16.6875 3.11793C18.4738 4.90553 19.457 7.28165 19.456 9.80865C19.4538 15.0234 15.2096 19.2662 9.99575 19.2662C9.99538 19.2662 9.99602 19.2662 9.99575 19.2662H9.99154C8.40826 19.2657 6.85255 18.8682 5.47082 18.1152L0.455566 19.4302Z" fill="url(#paint0_linear)"/>
<path fill-rule="evenodd" clip-rule="evenodd" d="M7.54787 5.70276C7.36446 5.29497 7.17135 5.28681 6.99686 5.27968C6.85414 5.27355 6.69074 5.27393 6.52761 5.27393C6.36435 5.27393 6.09905 5.33528 5.8747 5.58031C5.65022 5.82534 5.01758 6.41767 5.01758 7.62237C5.01758 8.82721 5.89511 9.99135 6.01742 10.1549C6.13987 10.3181 7.71139 12.8694 10.2002 13.8509C12.2687 14.6665 12.6896 14.5043 13.1385 14.4635C13.5875 14.4227 14.5872 13.8713 14.7913 13.2995C14.9954 12.7278 14.9954 12.2377 14.9342 12.1353C14.8729 12.0333 14.7097 11.972 14.4648 11.8496C14.2199 11.7272 13.0161 11.1347 12.7916 11.0531C12.5671 10.9714 12.4039 10.9306 12.2406 11.1758C12.0774 11.4207 11.6084 11.972 11.4655 12.1353C11.3226 12.2989 11.1798 12.3194 10.9349 12.1969C10.69 12.0741 9.90137 11.8158 8.96582 10.9816C8.23791 10.3326 7.74646 9.53112 7.6036 9.28598C7.46075 9.04108 7.58829 8.90843 7.71113 8.78636C7.82107 8.67666 7.95602 8.50052 8.07846 8.35753C8.20065 8.21454 8.24146 8.11251 8.32309 7.94924C8.40473 7.78572 8.36391 7.64275 8.30269 7.5203C8.24146 7.39785 7.76559 6.18693 7.54787 5.70276Z" fill="white"/>
<path d="M16.9292 2.87452C15.0788 1.02289 12.6184 0.00262401 9.99702 0.00146484C4.59518 0.00146484 0.199186 4.39605 0.197014 9.79763C0.196378 11.5243 0.647523 13.2097 1.50503 14.6954L0.114746 19.7719L5.30983 18.4096C6.74119 19.1902 8.35278 19.6016 9.9928 19.6022H9.99697H9.99702C15.398 19.6022 19.7946 15.2069 19.7969 9.80553C19.7978 7.18772 18.7793 4.72628 16.9292 2.87452ZM9.99702 17.9477H9.99383C8.53199 17.9469 7.09846 17.5544 5.84809 16.8125L5.55051 16.6361L2.46765 17.4444L3.29072 14.4397L3.09685 14.1316C2.28143 12.8351 1.85095 11.3368 1.85159 9.79828C1.85337 5.30868 5.50715 1.65617 10.0001 1.65617C12.1758 1.65707 14.2207 2.50514 15.7587 4.04416C17.2965 5.58317 18.1428 7.62905 18.1422 9.80493C18.1403 14.2946 14.4864 17.9477 9.99702 17.9477Z" fill="white"/>
</g>
<defs>
<linearGradient id="paint0_linear" x1="9.95577" y1="19.4302" x2="9.95577" y2="0.34427" gradientUnits="userSpaceOnUse">
<stop stop-color="#20B038"/>
<stop offset="1" stop-color="#60D66A"/>
</linearGradient>
<clipPath id="clip0">
<rect width="19.912" height="20" fill="white"/>
</clipPath>
</defs>
</svg>
